<svg xmlns="http://www.w3.org/2000/svg" viewBox="0 0 10.5532 23.99958"><defs><style>.cls-1{fill:#bdbfc0;}</style></defs><g id="图层_2" data-name="图层 2"><g id="图层_1-2" data-name="图层 1"><path class="cls-1" d="M7.56693,15.04235s2.25973-1.35889,2.85422-2.64736c.51259-1.82744-.546-6.05306-1.81823-7.74624A3.35728,3.35728,0,0,1,7.30881,7.05354a4.79746,4.79746,0,0,0,.67862-3.24466C6.67893,1.94459,4.38618.51931,0,0A10.21941,10.21941,0,0,1,2.58747,4.5249,3.22973,3.22973,0,0,0,4.09311,6.07138a1.9107,1.9107,0,0,1-1.40525-.49505A16.7411,16.7411,0,0,1,2.966,10.93254a2.41915,2.41915,0,0,0,1.12742,1.53653,1.90665,1.90665,0,0,1-1.257-.7812,6.9692,6.9692,0,0,1-.13664,1.489,3.3562,3.3562,0,0,0-.1226,2.32144,6.75134,6.75134,0,0,1,.989,2.6887C4.18,16.54063,4.77649,15.2467,5.35016,13.5578c1.418-4.17473.62621-6.56432.62621-6.56432a7.98952,7.98952,0,0,1,.48831,6.20561C5.19288,17.13069,4.18,19.15531,3.4548,21.21956c-.29873.85031-.55367,1.75327-.091,2.34268,1.15136,1.46687,3.24664-1.22648,3.24664-1.22648s-1.68055,1.3491-2.24772.7367c-.34355-.37093.02917-1.48737,1.21308-4.29143,1.302-.91157,2.44713-.52581,3.77857-2.18939a6.72717,6.72717,0,0,0,1.10822-3.25588A6.05435,6.05435,0,0,1,7.56693,15.04235Z"/></g></g></svg>